<?xml version="1.0" encoding="utf-8"?>
<!-- Generator: Adobe Illustrator 19.1.0, SVG Export Plug-In . SVG Version: 6.00 Build 0)  -->
<svg version="1.1" id="レイヤー_1" xmlns="http://www.w3.org/2000/svg" xmlns:xlink="http://www.w3.org/1999/xlink" x="0px"
	 y="0px" viewBox="0 0 100 100" style="enable-background:new 0 0 100 100;" xml:space="preserve">
<path d="M50,0C22.4,0,0,22.4,0,50c0,27.6,22.4,50,50,50s50-22.4,50-50C100,22.4,77.6,0,50,0z M36,75H25V40h11V75z M30.6,36
	c-3.4,0-5.6-2.4-5.6-5.3c0-3,2.2-5.3,5.7-5.3c3.4,0,5.6,2.3,5.6,5.3C36.3,33.6,34.1,36,30.6,36z M75,75H64V55.6
	c0-4.4-1.4-7.5-5.3-7.5c-3,0-4.7,2-5.4,4C53,52.8,53,53.8,53,54.8V75H42V51.2c0-4.3,0.2-8.2,0.1-11.2h9.3l0.5,5h0.2
	c1.4-2,4.9-5.5,10.6-5.5c7,0,12.3,4.7,12.3,14.9V75z"/>
</svg>
