<?xml version="1.0" encoding="utf-8"?>
<!-- Generator: Adobe Illustrator 19.1.0, SVG Export Plug-In . SVG Version: 6.00 Build 0)  -->
<svg version="1.1" id="レイヤー_1" xmlns="http://www.w3.org/2000/svg" xmlns:xlink="http://www.w3.org/1999/xlink" x="0px"
	 y="0px" viewBox="0 0 100 100" style="enable-background:new 0 0 100 100;" xml:space="preserve">
<path d="M50,0C22.4,0,0,22.4,0,50c0,27.6,22.4,50,50,50s50-22.4,50-50C100,22.4,77.6,0,50,0z M30.6,75c-3.1,0-5.6-2.5-5.6-5.5
	c0-3.1,2.5-5.6,5.6-5.6c3.1,0,5.6,2.5,5.6,5.6C36.1,72.5,33.6,75,30.6,75z M45.4,75c0-11.2-9.1-20.4-20.4-20.4V44.4
	c16.9,0,30.6,13.7,30.6,30.6H45.4z M64.6,75c0-21.9-17.7-39.6-39.6-39.6V25c27.6,0,50,22.4,50,50H64.6z"/>
</svg>
