<?xml version="1.0" encoding="utf-8"?>
<!-- Generator: Adobe Illustrator 19.1.0, SVG Export Plug-In . SVG Version: 6.00 Build 0)  -->
<svg version="1.1" id="レイヤー_1" xmlns="http://www.w3.org/2000/svg" xmlns:xlink="http://www.w3.org/1999/xlink" x="0px"
	 y="0px" viewBox="0 0 100 100" style="enable-background:new 0 0 100 100;" xml:space="preserve">
<path d="M50,0C22.4,0,0,22.4,0,50c0,27.6,22.4,50,50,50s50-22.4,50-50C100,22.4,77.6,0,50,0z M72.8,51.2C68,72.8,35.1,81.9,20,59.5
	c5.8,6,15.9,6.5,22.3-0.6c-3.8,0.6-6.5-3.4-1.9-5.6c-4.1,0.5-6.4-1.9-7.4-3.9c1-1.1,2-1.6,4.1-1.8c-4.5-1.2-6.2-3.6-6.7-6.5
	c1.3-0.3,2.8-0.6,3.7-0.5c-4-2.3-5.3-5.7-5.1-8.2c7.1,2.9,11.6,5.2,15.4,7.4c1.3,0.8,2.9,2.2,4.5,4c2.2-6.2,4.8-12.6,9.4-15.8
	c-0.1,0.7-0.4,1.4-0.9,1.9c1.3-1.3,3-2.2,4.7-2.4c-0.2,1.4-2,2.2-3.2,2.6c0.8-0.3,5.3-2.5,5.8-1.2c0.6,1.4-3.1,2.1-3.7,2.3
	c-0.5,0.2-0.9,0.4-1.4,0.6c5.7-0.6,11.1,4.5,12.7,10.8c0.1,0.5,0.2,1,0.3,1.5c2.1,0.8,5.9,0,7.1-0.9c-0.9,2.3-3.2,3.9-6.5,4.2
	c1.6,0.7,4.7,1.1,6.8,0.8C78.7,49.8,76.5,51.2,72.8,51.2z"/>
</svg>
