<?xml version="1.0" encoding="utf-8"?>
<!-- Generator: Adobe Illustrator 19.1.0, SVG Export Plug-In . SVG Version: 6.00 Build 0)  -->
<svg version="1.1" id="レイヤー_1" xmlns="http://www.w3.org/2000/svg" xmlns:xlink="http://www.w3.org/1999/xlink" x="0px"
	 y="0px" viewBox="0 0 100 100" style="enable-background:new 0 0 100 100;" xml:space="preserve">
<g>
	<circle cx="50.1" cy="50.1" r="9.8"/>
	<path d="M64.5,55.4c0,0-2,5.1-7,8.1c0,0-3.5,2.1-9,1.9c0,0-5.1-0.6-8.1-3.4c0,0-3.1-2.1-5.3-8c0,0-1.2-2.9,0.1-7.9H31v21.6
		c0,0-0.1,1.4,1,1.4h35.7c0,0,1.3,0.4,1.3-0.9V46h-4.1C64.9,46,66.4,50.9,64.5,55.4z"/>
	<path d="M61.3,40H68c1.6,0,1-1.3,1-1.3v-6.2c0-1.2-1.1-1.6-1.1-1.6h-6.7c-1.3,0-1.2,1.6-1.2,1.6v6.3C60,40.3,61.3,40,61.3,40z"/>
	<path d="M50,0C22.4,0,0,22.4,0,50c0,27.6,22.4,50,50,50s50-22.4,50-50C100,22.4,77.6,0,50,0z M75,70.2c-0.9,4.2-4.4,4.8-4.4,4.8
		h-41c-3.8,0-4.6-4.5-4.6-4.5V29.6c0,0,0.7-4.6,5-4.6h40.3c0,0,4,1,4.7,4.9V70.2z"/>
</g>
</svg>
